<svg width="11" height="7" viewBox="0 0 11 7" fill="none" xmlns="http://www.w3.org/2000/svg">
<path d="M1.31063 0.75H9.68963C9.83794 0.750032 9.98292 0.794035 10.1062 0.876448C10.2295 0.958861 10.3256 1.07598 10.3824 1.21301C10.4391 1.35003 10.454 1.50081 10.4251 1.64627C10.3961 1.79174 10.3247 1.92536 10.2199 2.03025L6.03038 6.21974C5.88974 6.36034 5.699 6.43933 5.50013 6.43933C5.30126 6.43933 5.11053 6.36034 4.96988 6.21974L0.780381 2.03025C0.675524 1.92536 0.604119 1.79174 0.575194 1.64627C0.546268 1.50081 0.56112 1.35003 0.617873 1.21301C0.674625 1.07598 0.77073 0.958861 0.894037 0.876448C1.01734 0.794035 1.16232 0.750032 1.31063 0.75Z" fill="#858D9D"/>
</svg>
